# Blender 4.1.0
# www.blender.org
mtllib mg-50cal.mtl
o Cylinder.002
v -1.720250 6.777457 0.850779
v -1.720250 6.746267 2.763524
v -1.703323 6.775912 0.850779
v -1.709889 6.745321 2.763524
v -1.687047 6.771336 0.850779
v -1.699925 6.742520 2.763524
v -1.672047 6.763905 0.850779
v -1.690743 6.737971 2.763524
v -1.658900 6.753903 0.850779
v -1.682695 6.731849 2.763524
v -1.648109 6.741717 0.850779
v -1.676090 6.724389 2.763524
v -1.640092 6.727814 0.850779
v -1.671182 6.715878 2.763524
v -1.635154 6.712729 0.850779
v -1.668159 6.706644 2.763524
v -1.633487 6.697040 0.850779
v -1.667139 6.697040 2.763524
v -1.635154 6.681351 0.850779
v -1.668159 6.687436 2.763524
v -1.640092 6.666265 0.850779
v -1.671182 6.678202 2.763524
v -1.648109 6.652362 0.850779
v -1.676090 6.669691 2.763524
v -1.658900 6.640176 0.850779
v -1.682695 6.662231 2.763524
v -1.672047 6.630175 0.850779
v -1.690743 6.656109 2.763524
v -1.687047 6.622744 0.850779
v -1.699925 6.651560 2.763524
v -1.703323 6.618167 0.850779
v -1.709889 6.648759 2.763524
v -1.720250 6.616622 0.850779
v -1.720250 6.647813 2.763524
v -1.737177 6.618167 0.850779
v -1.730611 6.648759 2.763524
v -1.753453 6.622744 0.850779
v -1.740575 6.651560 2.763524
v -1.768453 6.630175 0.850779
v -1.749757 6.656109 2.763524
v -1.781600 6.640176 0.850779
v -1.757805 6.662231 2.763524
v -1.792391 6.652362 0.850779
v -1.764410 6.669691 2.763524
v -1.800408 6.666265 0.850779
v -1.769318 6.678202 2.763524
v -1.805346 6.681351 0.850779
v -1.772341 6.687436 2.763524
v -1.807013 6.697040 0.850779
v -1.773361 6.697040 2.763524
v -1.805346 6.712729 0.850779
v -1.772341 6.706644 2.763524
v -1.800408 6.727814 0.850779
v -1.769318 6.715878 2.763524
v -1.792391 6.741717 0.850779
v -1.764410 6.724389 2.763524
v -1.781600 6.753903 0.850779
v -1.757805 6.731849 2.763524
v -1.768453 6.763905 0.850779
v -1.749757 6.737971 2.763524
v -1.753453 6.771336 0.850779
v -1.740575 6.742520 2.763524
v -1.737177 6.775912 0.850779
v -1.730611 6.745321 2.763524
v -1.866647 6.543982 0.447461
v -1.866647 6.855014 0.447461
v -1.866647 6.543982 -0.513174
v -1.866647 6.855013 -0.513174
v -1.582944 6.543982 0.447461
v -1.582944 6.855014 0.447461
v -1.582944 6.543982 -0.513174
v -1.582944 6.855013 -0.513174
v -1.815287 6.600289 0.861477
v -1.815287 6.798707 0.861477
v -1.634304 6.798707 0.861477
v -1.634304 6.600289 0.861477
v -2.192529 6.239670 0.126478
v -2.192529 6.695116 0.126478
v -2.192529 6.239670 -0.192191
v -2.192529 6.695116 -0.192191
v -1.270912 6.239670 0.126478
v -1.270912 6.695116 0.126478
v -1.270912 6.239670 -0.192191
v -1.270912 6.695116 -0.192191
v -2.272880 5.788118 -0.736868
v -1.681042 6.722907 -0.289304
v -2.267366 5.782054 -0.731494
v -1.675528 6.716843 -0.283929
v -2.263222 5.776222 -0.724793
v -1.671384 6.711011 -0.277228
v -2.260609 5.770848 -0.717024
v -1.668771 6.705637 -0.269459
v -2.259626 5.766137 -0.708485
v -1.667788 6.700926 -0.260920
v -2.260312 5.762271 -0.699504
v -1.668474 6.697060 -0.251939
v -2.262640 5.759398 -0.690426
v -1.670801 6.694187 -0.242861
v -2.266520 5.757629 -0.681600
v -1.674681 6.692419 -0.234036
v -2.271803 5.757032 -0.673366
v -1.679965 6.691821 -0.225801
v -2.278287 5.757629 -0.666040
v -1.686449 6.692419 -0.218475
v -2.285722 5.759398 -0.659903
v -1.693884 6.694187 -0.212338
v -2.293823 5.762271 -0.655191
v -1.701984 6.697060 -0.207626
v -2.302277 5.766137 -0.652085
v -1.710439 6.700926 -0.204520
v -2.310761 5.770848 -0.650705
v -1.718923 6.705637 -0.203140
v -2.318949 5.776222 -0.651104
v -1.727110 6.711011 -0.203539
v -2.326524 5.782054 -0.653265
v -1.734686 6.716843 -0.205701
v -2.333198 5.788118 -0.657107
v -1.741359 6.722907 -0.209543
v -2.338712 5.794183 -0.662482
v -1.746874 6.728971 -0.214917
v -2.342855 5.800014 -0.669183
v -1.751017 6.734803 -0.221618
v -2.345469 5.805389 -0.676952
v -1.753631 6.740178 -0.229387
v -2.346452 5.810100 -0.685491
v -1.754613 6.744888 -0.237926
v -2.345766 5.813965 -0.694472
v -1.753928 6.748754 -0.246907
v -2.343439 5.816838 -0.703550
v -1.751600 6.751627 -0.255985
v -2.339558 5.818607 -0.712375
v -1.747720 6.753396 -0.264810
v -2.334275 5.819204 -0.720609
v -1.742437 6.753993 -0.273045
v -2.327791 5.818607 -0.727936
v -1.735953 6.753396 -0.280371
v -2.320356 5.816838 -0.734073
v -1.728518 6.751627 -0.286508
v -2.312255 5.813965 -0.738785
v -1.720417 6.748754 -0.291220
v -2.303801 5.810100 -0.741891
v -1.711962 6.744888 -0.294326
v -2.295317 5.805389 -0.743271
v -1.703478 6.740178 -0.295706
v -2.287129 5.800014 -0.742872
v -1.695291 6.734803 -0.295307
v -2.279554 5.794183 -0.740710
v -1.687715 6.728971 -0.293146
v -1.194138 5.788118 -0.736868
v -1.785977 6.722907 -0.289304
v -1.187464 5.794183 -0.740710
v -1.779303 6.728971 -0.293146
v -1.179888 5.800014 -0.742872
v -1.771727 6.734803 -0.295307
v -1.171701 5.805389 -0.743271
v -1.763540 6.740177 -0.295706
v -1.163217 5.810100 -0.741891
v -1.755056 6.744888 -0.294326
v -1.154763 5.813965 -0.738785
v -1.746601 6.748754 -0.291220
v -1.146662 5.816838 -0.734073
v -1.738501 6.751626 -0.286508
v -1.139227 5.818607 -0.727936
v -1.731066 6.753396 -0.280371
v -1.132743 5.819204 -0.720609
v -1.724582 6.753993 -0.273045
v -1.127460 5.818607 -0.712375
v -1.719298 6.753396 -0.264810
v -1.123579 5.816838 -0.703550
v -1.715418 6.751626 -0.255985
v -1.121252 5.813965 -0.694472
v -1.713091 6.748754 -0.246907
v -1.120566 5.810100 -0.685491
v -1.712405 6.744888 -0.237926
v -1.121549 5.805389 -0.676952
v -1.713388 6.740177 -0.229387
v -1.124162 5.800014 -0.669183
v -1.716002 6.734803 -0.221618
v -1.128306 5.794183 -0.662482
v -1.720145 6.728971 -0.214917
v -1.133820 5.788118 -0.657107
v -1.725659 6.722907 -0.209543
v -1.140494 5.782054 -0.653265
v -1.732333 6.716842 -0.205701
v -1.148070 5.776222 -0.651104
v -1.739908 6.711010 -0.203539
v -1.156257 5.770848 -0.650705
v -1.748096 6.705637 -0.203140
v -1.164741 5.766137 -0.652085
v -1.756580 6.700926 -0.204520
v -1.173195 5.762271 -0.655191
v -1.765034 6.697060 -0.207626
v -1.181296 5.759398 -0.659903
v -1.773135 6.694187 -0.212338
v -1.188731 5.757629 -0.666040
v -1.780570 6.692418 -0.218475
v -1.195215 5.757032 -0.673366
v -1.787054 6.691821 -0.225802
v -1.200498 5.757629 -0.681601
v -1.792337 6.692418 -0.234036
v -1.204378 5.759398 -0.690426
v -1.796217 6.694187 -0.242861
v -1.206706 5.762271 -0.699504
v -1.798545 6.697060 -0.251939
v -1.207392 5.766137 -0.708485
v -1.799231 6.700926 -0.260920
v -1.206409 5.770848 -0.717024
v -1.798248 6.705637 -0.269459
v -1.203795 5.776222 -0.724793
v -1.795635 6.711011 -0.277228
v -1.199652 5.782054 -0.731494
v -1.791491 6.716842 -0.283929
vn 0.0909 0.9957 0.0162
vn 0.2706 0.9625 0.0163
vn 0.4439 0.8959 0.0165
vn 0.6053 0.7958 0.0167
vn 0.7486 0.6628 0.0170
vn 0.8661 0.4995 0.0172
vn 0.9503 0.3110 0.0174
vn 0.9942 0.1057 0.0175
vn 0.9942 -0.1057 0.0175
vn 0.9503 -0.3110 0.0174
vn 0.8661 -0.4995 0.0172
vn 0.7486 -0.6628 0.0170
vn 0.6053 -0.7958 0.0167
vn 0.4439 -0.8959 0.0165
vn 0.2706 -0.9625 0.0163
vn 0.0909 -0.9957 0.0162
vn -0.0909 -0.9957 0.0162
vn -0.2706 -0.9625 0.0163
vn -0.4439 -0.8959 0.0165
vn -0.6053 -0.7958 0.0167
vn -0.7486 -0.6628 0.0170
vn -0.8661 -0.4995 0.0172
vn -0.9503 -0.3110 0.0174
vn -0.9942 -0.1057 0.0175
vn -0.9942 0.1057 0.0175
vn -0.9503 0.3110 0.0174
vn -0.8661 0.4995 0.0172
vn -0.7486 0.6628 0.0170
vn -0.6053 0.7958 0.0167
vn -0.4439 0.8959 0.0165
vn -0.0000 -0.0000 1.0000
vn -0.2706 0.9625 0.0163
vn -0.0909 0.9957 0.0162
vn -0.0000 -0.0000 -1.0000
vn -1.0000 -0.0000 -0.0000
vn 1.0000 -0.0000 -0.0000
vn -0.9924 -0.0000 0.1231
vn -0.0000 -1.0000 -0.0000
vn -0.0000 1.0000 -0.0000
vn -0.0000 -0.9909 0.1348
vn -0.0000 0.9909 0.1348
vn 0.9924 -0.0000 0.1231
vn 0.6615 -0.0609 -0.7475
vn 0.7585 -0.1805 -0.6261
vn 0.8264 -0.2931 -0.4807
vn 0.8626 -0.3944 -0.3168
vn 0.8656 -0.4806 -0.1408
vn 0.8353 -0.5483 0.0407
vn 0.7729 -0.5949 0.2206
vn 0.6808 -0.6187 0.3920
vn 0.5626 -0.6187 0.5483
vn 0.4227 -0.5950 0.6836
vn 0.2666 -0.5483 0.7926
vn 0.1003 -0.4806 0.8712
vn -0.0699 -0.3944 0.9163
vn -0.2375 -0.2931 0.9261
vn -0.3958 -0.1805 0.9004
vn -0.5390 -0.0609 0.8401
vn -0.6615 0.0609 0.7475
vn -0.7585 0.1805 0.6261
vn -0.8264 0.2931 0.4807
vn -0.8626 0.3944 0.3168
vn -0.8656 0.4806 0.1408
vn -0.8353 0.5483 -0.0407
vn -0.7729 0.5949 -0.2206
vn -0.6808 0.6187 -0.3920
vn -0.5626 0.6187 -0.5483
vn -0.4227 0.5949 -0.6836
vn -0.2666 0.5483 -0.7926
vn -0.1003 0.4806 -0.8712
vn 0.0700 0.3944 -0.9163
vn 0.2374 0.2931 -0.9261
vn 0.4959 0.7832 0.3750
vn 0.3958 0.1805 -0.9004
vn 0.5390 0.0609 -0.8401
vn -0.4959 -0.7832 -0.3750
vn -0.5390 0.0609 -0.8401
vn -0.3958 0.1805 -0.9004
vn -0.2375 0.2931 -0.9261
vn -0.0699 0.3944 -0.9163
vn 0.1003 0.4806 -0.8712
vn 0.2666 0.5483 -0.7926
vn 0.4227 0.5950 -0.6836
vn 0.5626 0.6187 -0.5483
vn 0.6808 0.6187 -0.3920
vn 0.7729 0.5949 -0.2206
vn 0.8353 0.5483 -0.0407
vn 0.8656 0.4806 0.1408
vn 0.8626 0.3944 0.3169
vn 0.8264 0.2931 0.4807
vn 0.7585 0.1805 0.6261
vn 0.6615 0.0609 0.7475
vn 0.5390 -0.0609 0.8401
vn 0.3958 -0.1805 0.9004
vn 0.2375 -0.2931 0.9261
vn 0.0699 -0.3944 0.9163
vn -0.1003 -0.4806 0.8712
vn -0.2666 -0.5483 0.7926
vn -0.4227 -0.5949 0.6836
vn -0.5626 -0.6187 0.5483
vn -0.6808 -0.6187 0.3920
vn -0.7729 -0.5949 0.2205
vn -0.8353 -0.5483 0.0407
vn -0.8656 -0.4806 -0.1408
vn -0.8626 -0.3944 -0.3169
vn -0.8264 -0.2931 -0.4807
vn -0.4959 0.7832 0.3750
vn -0.7585 -0.1805 -0.6261
vn -0.6615 -0.0609 -0.7475
vn 0.4959 -0.7832 -0.3750
vt 1.000000 0.500000
vt 1.000000 1.000000
vt 0.968750 1.000000
vt 0.968750 0.500000
vt 0.937500 1.000000
vt 0.937500 0.500000
vt 0.906250 1.000000
vt 0.906250 0.500000
vt 0.875000 1.000000
vt 0.875000 0.500000
vt 0.843750 1.000000
vt 0.843750 0.500000
vt 0.812500 1.000000
vt 0.812500 0.500000
vt 0.781250 1.000000
vt 0.781250 0.500000
vt 0.750000 1.000000
vt 0.750000 0.500000
vt 0.718750 1.000000
vt 0.718750 0.500000
vt 0.687500 1.000000
vt 0.687500 0.500000
vt 0.656250 1.000000
vt 0.656250 0.500000
vt 0.625000 1.000000
vt 0.625000 0.500000
vt 0.593750 1.000000
vt 0.593750 0.500000
vt 0.562500 1.000000
vt 0.562500 0.500000
vt 0.531250 1.000000
vt 0.531250 0.500000
vt 0.500000 1.000000
vt 0.500000 0.500000
vt 0.468750 1.000000
vt 0.468750 0.500000
vt 0.437500 1.000000
vt 0.437500 0.500000
vt 0.406250 1.000000
vt 0.406250 0.500000
vt 0.375000 1.000000
vt 0.375000 0.500000
vt 0.343750 1.000000
vt 0.343750 0.500000
vt 0.312500 1.000000
vt 0.312500 0.500000
vt 0.281250 1.000000
vt 0.281250 0.500000
vt 0.250000 1.000000
vt 0.250000 0.500000
vt 0.218750 1.000000
vt 0.218750 0.500000
vt 0.187500 1.000000
vt 0.187500 0.500000
vt 0.156250 1.000000
vt 0.156250 0.500000
vt 0.125000 1.000000
vt 0.125000 0.500000
vt 0.093750 1.000000
vt 0.093750 0.500000
vt 0.062500 1.000000
vt 0.062500 0.500000
vt 0.296822 0.485388
vt 0.250000 0.490000
vt 0.203178 0.485388
vt 0.158156 0.471731
vt 0.116663 0.449553
vt 0.080294 0.419706
vt 0.050447 0.383337
vt 0.028269 0.341844
vt 0.014612 0.296822
vt 0.010000 0.250000
vt 0.014612 0.203178
vt 0.028269 0.158156
vt 0.050447 0.116663
vt 0.080294 0.080294
vt 0.116663 0.050447
vt 0.158156 0.028269
vt 0.203178 0.014612
vt 0.250000 0.010000
vt 0.296822 0.014612
vt 0.341844 0.028269
vt 0.383337 0.050447
vt 0.419706 0.080294
vt 0.449553 0.116663
vt 0.471731 0.158156
vt 0.485388 0.203178
vt 0.490000 0.250000
vt 0.485388 0.296822
vt 0.471731 0.341844
vt 0.449553 0.383337
vt 0.419706 0.419706
vt 0.383337 0.449553
vt 0.341844 0.471731
vt 0.031250 1.000000
vt 0.031250 0.500000
vt 0.000000 1.000000
vt 0.000000 0.500000
vt 0.750000 0.490000
vt 0.796822 0.485388
vt 0.841844 0.471731
vt 0.883337 0.449553
vt 0.919706 0.419706
vt 0.949553 0.383337
vt 0.971731 0.341844
vt 0.985388 0.296822
vt 0.990000 0.250000
vt 0.985388 0.203178
vt 0.971731 0.158156
vt 0.949553 0.116663
vt 0.919706 0.080294
vt 0.883337 0.050447
vt 0.841844 0.028269
vt 0.796822 0.014612
vt 0.750000 0.010000
vt 0.703178 0.014612
vt 0.658156 0.028269
vt 0.616663 0.050447
vt 0.580294 0.080294
vt 0.550447 0.116663
vt 0.528269 0.158156
vt 0.514612 0.203178
vt 0.510000 0.250000
vt 0.514612 0.296822
vt 0.528269 0.341844
vt 0.550447 0.383337
vt 0.580294 0.419706
vt 0.616663 0.449553
vt 0.658156 0.471731
vt 0.703178 0.485388
vt 0.375000 0.000000
vt 0.625000 0.000000
vt 0.625000 0.250000
vt 0.375000 0.250000
vt 0.625000 0.750000
vt 0.375000 0.750000
vt 0.125000 0.750000
vt 0.875000 0.750000
s 0
usemtl Material.004
f 1/1/1 2/2/1 4/3/1 3/4/1
f 3/4/2 4/3/2 6/5/2 5/6/2
f 5/6/3 6/5/3 8/7/3 7/8/3
f 7/8/4 8/7/4 10/9/4 9/10/4
f 9/10/5 10/9/5 12/11/5 11/12/5
f 11/12/6 12/11/6 14/13/6 13/14/6
f 13/14/7 14/13/7 16/15/7 15/16/7
f 15/16/8 16/15/8 18/17/8 17/18/8
f 17/18/9 18/17/9 20/19/9 19/20/9
f 19/20/10 20/19/10 22/21/10 21/22/10
f 21/22/11 22/21/11 24/23/11 23/24/11
f 23/24/12 24/23/12 26/25/12 25/26/12
f 25/26/13 26/25/13 28/27/13 27/28/13
f 27/28/14 28/27/14 30/29/14 29/30/14
f 29/30/15 30/29/15 32/31/15 31/32/15
f 31/32/16 32/31/16 34/33/16 33/34/16
f 33/34/17 34/33/17 36/35/17 35/36/17
f 35/36/18 36/35/18 38/37/18 37/38/18
f 37/38/19 38/37/19 40/39/19 39/40/19
f 39/40/20 40/39/20 42/41/20 41/42/20
f 41/42/21 42/41/21 44/43/21 43/44/21
f 43/44/22 44/43/22 46/45/22 45/46/22
f 45/46/23 46/45/23 48/47/23 47/48/23
f 47/48/24 48/47/24 50/49/24 49/50/24
f 49/50/25 50/49/25 52/51/25 51/52/25
f 51/52/26 52/51/26 54/53/26 53/54/26
f 53/54/27 54/53/27 56/55/27 55/56/27
f 55/56/28 56/55/28 58/57/28 57/58/28
f 57/58/29 58/57/29 60/59/29 59/60/29
f 59/60/30 60/59/30 62/61/30 61/62/30
f 4/63/31 2/64/31 64/65/31 62/66/31 60/67/31 58/68/31 56/69/31 54/70/31 52/71/31 50/72/31 48/73/31 46/74/31 44/75/31 42/76/31 40/77/31 38/78/31 36/79/31 34/80/31 32/81/31 30/82/31 28/83/31 26/84/31 24/85/31 22/86/31 20/87/31 18/88/31 16/89/31 14/90/31 12/91/31 10/92/31 8/93/31 6/94/31
f 61/62/32 62/61/32 64/95/32 63/96/32
f 63/96/33 64/95/33 2/97/33 1/98/33
f 1/99/34 3/100/34 5/101/34 7/102/34 9/103/34 11/104/34 13/105/34 15/106/34 17/107/34 19/108/34 21/109/34 23/110/34 25/111/34 27/112/34 29/113/34 31/114/34 33/115/34 35/116/34 37/117/34 39/118/34 41/119/34 43/120/34 45/121/34 47/122/34 49/123/34 51/124/34 53/125/34 55/126/34 57/127/34 59/128/34 61/129/34 63/130/34
f 65/131/35 66/132/35 68/133/35 67/134/35
f 67/134/34 68/133/34 72/26/34 71/42/34
f 71/42/36 72/26/36 70/135/36 69/136/36
f 66/132/37 65/131/37 73/131/37 74/132/37
f 67/58/38 71/42/38 69/136/38 65/137/38
f 72/26/39 68/10/39 66/138/39 70/135/39
f 76/136/31 75/135/31 74/25/31 73/41/31
f 65/137/40 69/136/40 76/136/40 73/137/40
f 70/135/41 66/138/41 74/138/41 75/135/41
f 69/136/42 70/135/42 75/135/42 76/136/42
usemtl Material.005
f 77/131/35 78/132/35 80/133/35 79/134/35
f 79/134/34 80/133/34 84/26/34 83/42/34
f 83/42/36 84/26/36 82/135/36 81/136/36
f 81/136/31 82/135/31 78/25/31 77/41/31
f 79/58/38 83/42/38 81/136/38 77/137/38
f 84/26/39 80/10/39 78/138/39 82/135/39
usemtl Material.006
f 85/1/43 86/2/43 88/3/43 87/4/43
f 87/4/44 88/3/44 90/5/44 89/6/44
f 89/6/45 90/5/45 92/7/45 91/8/45
f 91/8/46 92/7/46 94/9/46 93/10/46
f 93/10/47 94/9/47 96/11/47 95/12/47
f 95/12/48 96/11/48 98/13/48 97/14/48
f 97/14/49 98/13/49 100/15/49 99/16/49
f 99/16/50 100/15/50 102/17/50 101/18/50
f 101/18/51 102/17/51 104/19/51 103/20/51
f 103/20/52 104/19/52 106/21/52 105/22/52
f 105/22/53 106/21/53 108/23/53 107/24/53
f 107/24/54 108/23/54 110/25/54 109/26/54
f 109/26/55 110/25/55 112/27/55 111/28/55
f 111/28/56 112/27/56 114/29/56 113/30/56
f 113/30/57 114/29/57 116/31/57 115/32/57
f 115/32/58 116/31/58 118/33/58 117/34/58
f 117/34/59 118/33/59 120/35/59 119/36/59
f 119/36/60 120/35/60 122/37/60 121/38/60
f 121/38/61 122/37/61 124/39/61 123/40/61
f 123/40/62 124/39/62 126/41/62 125/42/62
f 125/42/63 126/41/63 128/43/63 127/44/63
f 127/44/64 128/43/64 130/45/64 129/46/64
f 129/46/65 130/45/65 132/47/65 131/48/65
f 131/48/66 132/47/66 134/49/66 133/50/66
f 133/50/67 134/49/67 136/51/67 135/52/67
f 135/52/68 136/51/68 138/53/68 137/54/68
f 137/54/69 138/53/69 140/55/69 139/56/69
f 139/56/70 140/55/70 142/57/70 141/58/70
f 141/58/71 142/57/71 144/59/71 143/60/71
f 143/60/72 144/59/72 146/61/72 145/62/72
f 88/63/73 86/64/73 148/65/73 146/66/73 144/67/73 142/68/73 140/69/73 138/70/73 136/71/73 134/72/73 132/73/73 130/74/73 128/75/73 126/76/73 124/77/73 122/78/73 120/79/73 118/80/73 116/81/73 114/82/73 112/83/73 110/84/73 108/85/73 106/86/73 104/87/73 102/88/73 100/89/73 98/90/73 96/91/73 94/92/73 92/93/73 90/94/73
f 145/62/74 146/61/74 148/95/74 147/96/74
f 147/96/75 148/95/75 86/97/75 85/98/75
f 85/99/76 87/100/76 89/101/76 91/102/76 93/103/76 95/104/76 97/105/76 99/106/76 101/107/76 103/108/76 105/109/76 107/110/76 109/111/76 111/112/76 113/113/76 115/114/76 117/115/76 119/116/76 121/117/76 123/118/76 125/119/76 127/120/76 129/121/76 131/122/76 133/123/76 135/124/76 137/125/76 139/126/76 141/127/76 143/128/76 145/129/76 147/130/76
f 149/1/77 150/2/77 152/3/77 151/4/77
f 151/4/78 152/3/78 154/5/78 153/6/78
f 153/6/79 154/5/79 156/7/79 155/8/79
f 155/8/80 156/7/80 158/9/80 157/10/80
f 157/10/81 158/9/81 160/11/81 159/12/81
f 159/12/82 160/11/82 162/13/82 161/14/82
f 161/14/83 162/13/83 164/15/83 163/16/83
f 163/16/84 164/15/84 166/17/84 165/18/84
f 165/18/85 166/17/85 168/19/85 167/20/85
f 167/20/86 168/19/86 170/21/86 169/22/86
f 169/22/87 170/21/87 172/23/87 171/24/87
f 171/24/88 172/23/88 174/25/88 173/26/88
f 173/26/89 174/25/89 176/27/89 175/28/89
f 175/28/90 176/27/90 178/29/90 177/30/90
f 177/30/91 178/29/91 180/31/91 179/32/91
f 179/32/92 180/31/92 182/33/92 181/34/92
f 181/34/93 182/33/93 184/35/93 183/36/93
f 183/36/94 184/35/94 186/37/94 185/38/94
f 185/38/95 186/37/95 188/39/95 187/40/95
f 187/40/96 188/39/96 190/41/96 189/42/96
f 189/42/97 190/41/97 192/43/97 191/44/97
f 191/44/98 192/43/98 194/45/98 193/46/98
f 193/46/99 194/45/99 196/47/99 195/48/99
f 195/48/100 196/47/100 198/49/100 197/50/100
f 197/50/101 198/49/101 200/51/101 199/52/101
f 199/52/102 200/51/102 202/53/102 201/54/102
f 201/54/103 202/53/103 204/55/103 203/56/103
f 203/56/104 204/55/104 206/57/104 205/58/104
f 205/58/105 206/57/105 208/59/105 207/60/105
f 207/60/106 208/59/106 210/61/106 209/62/106
f 152/63/107 150/64/107 212/65/107 210/66/107 208/67/107 206/68/107 204/69/107 202/70/107 200/71/107 198/72/107 196/73/107 194/74/107 192/75/107 190/76/107 188/77/107 186/78/107 184/79/107 182/80/107 180/81/107 178/82/107 176/83/107 174/84/107 172/85/107 170/86/107 168/87/107 166/88/107 164/89/107 162/90/107 160/91/107 158/92/107 156/93/107 154/94/107
f 209/62/108 210/61/108 212/95/108 211/96/108
f 211/96/109 212/95/109 150/97/109 149/98/109
f 149/99/110 151/100/110 153/101/110 155/102/110 157/103/110 159/104/110 161/105/110 163/106/110 165/107/110 167/108/110 169/109/110 171/110/110 173/111/110 175/112/110 177/113/110 179/114/110 181/115/110 183/116/110 185/117/110 187/118/110 189/119/110 191/120/110 193/121/110 195/122/110 197/123/110 199/124/110 201/125/110 203/126/110 205/127/110 207/128/110 209/129/110 211/130/110
