# Blender 4.1.0
# www.blender.org
mtllib turret.mtl
o Cylinder
v 0.521878 4.969801 9.381152
v 0.517900 4.969801 12.092264
v 0.512271 4.872256 9.381138
v 0.508293 4.872256 12.092250
v 0.483818 4.778459 9.381096
v 0.479840 4.778459 12.092208
v 0.437613 4.692016 9.381028
v 0.433635 4.692016 12.092140
v 0.375432 4.616248 9.380938
v 0.371454 4.616248 12.092049
v 0.299664 4.554066 9.380826
v 0.295686 4.554066 12.091938
v 0.213221 4.507861 9.380699
v 0.209242 4.507861 12.091811
v 0.119424 4.479408 9.380562
v 0.115446 4.479408 12.091673
v 0.021879 4.469801 9.380419
v 0.017901 4.469801 12.091530
v -0.075666 4.479408 9.380276
v -0.079644 4.479408 12.091387
v -0.169463 4.507861 9.380137
v -0.173441 4.507861 12.091249
v -0.255906 4.554066 9.380011
v -0.259884 4.554066 12.091123
v -0.331674 4.616248 9.379900
v -0.335652 4.616248 12.091011
v -0.393855 4.692016 9.379808
v -0.397834 4.692016 12.090920
v -0.440060 4.778459 9.379741
v -0.444039 4.778459 12.090853
v -0.468513 4.872256 9.379699
v -0.472491 4.872256 12.090811
v -0.478121 4.969801 9.379684
v -0.482099 4.969801 12.090796
v -0.468513 5.067346 9.379699
v -0.472491 5.067346 12.090811
v -0.440060 5.161143 9.379741
v -0.444039 5.161143 12.090853
v -0.393855 5.247586 9.379808
v -0.397834 5.247586 12.090920
v -0.331674 5.323354 9.379900
v -0.335652 5.323354 12.091011
v -0.255906 5.385536 9.380011
v -0.259884 5.385536 12.091123
v -0.169463 5.431741 9.380137
v -0.173441 5.431741 12.091249
v -0.075666 5.460194 9.380276
v -0.079644 5.460194 12.091387
v 0.021879 5.469801 9.380419
v 0.017901 5.469801 12.091530
v 0.119424 5.460194 9.380562
v 0.115446 5.460194 12.091673
v 0.213220 5.431741 9.380699
v 0.209242 5.431741 12.091811
v 0.299664 5.385536 9.380826
v 0.295685 5.385536 12.091938
v 0.375432 5.323354 9.380938
v 0.371454 5.323354 12.092049
v 0.437613 5.247586 9.381028
v 0.433635 5.247586 12.092140
v 0.483818 5.161143 9.381096
v 0.479840 5.161143 12.092208
v 0.512271 5.067346 9.381138
v 0.508293 5.067346 12.092250
v -3.310621 4.610386 -7.013280
v -3.092371 6.055919 -7.078935
v 3.402477 4.610387 -7.003430
v 3.229715 6.055920 -7.003684
v -3.326154 4.055919 3.571869
v -3.105823 6.055919 2.088130
v 3.386944 4.055920 3.581719
v 3.216264 6.055920 2.163383
v 3.397213 4.055920 -3.416303
v 3.224452 6.055920 -3.416556
v -3.315885 4.055919 -3.426154
v -3.097635 6.055919 -3.491810
v 0.431908 4.969801 2.545851
v 0.414928 4.969801 14.117794
v 0.424222 4.891765 2.545840
v 0.407242 4.891765 14.117783
v 0.401460 4.816728 2.545807
v 0.384480 4.816728 14.117749
v 0.364496 4.747573 2.545753
v 0.347516 4.747573 14.117695
v 0.314751 4.686958 2.545679
v 0.297771 4.686958 14.117622
v 0.254137 4.637213 2.545590
v 0.237156 4.637213 14.117533
v 0.184982 4.600249 2.545489
v 0.168001 4.600249 14.117432
v 0.109945 4.577487 2.545379
v 0.092964 4.577487 14.117321
v 0.031909 4.569801 2.545264
v 0.014928 4.569801 14.117207
v -0.046127 4.577487 2.545150
v -0.063108 4.577487 14.117092
v -0.121164 4.600249 2.545039
v -0.138145 4.600249 14.116982
v -0.190319 4.637213 2.544938
v -0.207300 4.637213 14.116880
v -0.250934 4.686958 2.544849
v -0.267914 4.686958 14.116792
v -0.300679 4.747573 2.544776
v -0.317659 4.747573 14.116718
v -0.337643 4.816728 2.544722
v -0.354623 4.816728 14.116665
v -0.360405 4.891765 2.544688
v -0.377385 4.891765 14.116631
v -0.368091 4.969801 2.544678
v -0.385071 4.969801 14.116620
v -0.360405 5.047837 2.544688
v -0.377385 5.047837 14.116631
v -0.337643 5.122874 2.544722
v -0.354623 5.122874 14.116665
v -0.300679 5.192029 2.544776
v -0.317659 5.192029 14.116718
v -0.250934 5.252644 2.544849
v -0.267914 5.252644 14.116792
v -0.190319 5.302389 2.544938
v -0.207300 5.302389 14.116880
v -0.121164 5.339353 2.545039
v -0.138145 5.339353 14.116982
v -0.046127 5.362115 2.545150
v -0.063108 5.362115 14.117092
v 0.031909 5.369801 2.545264
v 0.014928 5.369801 14.117207
v 0.109945 5.362115 2.545379
v 0.092964 5.362115 14.117321
v 0.184982 5.339353 2.545489
v 0.168001 5.339353 14.117432
v 0.254137 5.302389 2.545590
v 0.237156 5.302389 14.117533
v 0.314751 5.252644 2.545679
v 0.297771 5.252644 14.117622
v 0.364496 5.192029 2.545753
v 0.347516 5.192029 14.117695
v 0.401460 5.122874 2.545807
v 0.384480 5.122874 14.117749
v 0.424222 5.047837 2.545840
v 0.407242 5.047837 14.117783
vn 0.9952 -0.0980 0.0015
vn 0.9569 -0.2903 0.0014
vn 0.8819 -0.4714 0.0013
vn 0.7730 -0.6344 0.0011
vn 0.6344 -0.7730 0.0009
vn 0.4714 -0.8819 0.0007
vn 0.2903 -0.9569 0.0004
vn 0.0980 -0.9952 0.0001
vn -0.0980 -0.9952 -0.0001
vn -0.2903 -0.9569 -0.0004
vn -0.4714 -0.8819 -0.0007
vn -0.6344 -0.7730 -0.0009
vn -0.7730 -0.6344 -0.0011
vn -0.8819 -0.4714 -0.0013
vn -0.9569 -0.2903 -0.0014
vn -0.9952 -0.0980 -0.0015
vn -0.9952 0.0980 -0.0015
vn -0.9569 0.2903 -0.0014
vn -0.8819 0.4714 -0.0013
vn -0.7730 0.6344 -0.0011
vn -0.6344 0.7730 -0.0009
vn -0.4714 0.8819 -0.0007
vn -0.2903 0.9569 -0.0004
vn -0.0980 0.9952 -0.0001
vn 0.0980 0.9952 0.0001
vn 0.2903 0.9569 0.0004
vn 0.4714 0.8819 0.0007
vn 0.6344 0.7730 0.0009
vn 0.7730 0.6344 0.0011
vn 0.8819 0.4714 0.0013
vn -0.0015 -0.0000 1.0000
vn 0.9569 0.2903 0.0014
vn 0.9952 0.0980 0.0015
vn 0.0015 -0.0000 -1.0000
vn 0.0065 -0.0229 -0.9997
vn 0.9963 0.0861 0.0015
vn -0.0053 0.5873 0.8094
vn -0.9920 0.1260 0.0083
vn -0.0000 -1.0000 -0.0000
vn -0.0000 1.0000 -0.0000
vn 0.0002 -0.9883 -0.1528
vn -0.9941 0.1084 -0.0015
vn 0.9950 0.0998 0.0092
vt 1.000000 0.500000
vt 1.000000 1.000000
vt 0.968750 1.000000
vt 0.968750 0.500000
vt 0.937500 1.000000
vt 0.937500 0.500000
vt 0.906250 1.000000
vt 0.906250 0.500000
vt 0.875000 1.000000
vt 0.875000 0.500000
vt 0.843750 1.000000
vt 0.843750 0.500000
vt 0.812500 1.000000
vt 0.812500 0.500000
vt 0.781250 1.000000
vt 0.781250 0.500000
vt 0.750000 1.000000
vt 0.750000 0.500000
vt 0.718750 1.000000
vt 0.718750 0.500000
vt 0.687500 1.000000
vt 0.687500 0.500000
vt 0.656250 1.000000
vt 0.656250 0.500000
vt 0.625000 1.000000
vt 0.625000 0.500000
vt 0.593750 1.000000
vt 0.593750 0.500000
vt 0.562500 1.000000
vt 0.562500 0.500000
vt 0.531250 1.000000
vt 0.531250 0.500000
vt 0.500000 1.000000
vt 0.500000 0.500000
vt 0.468750 1.000000
vt 0.468750 0.500000
vt 0.437500 1.000000
vt 0.437500 0.500000
vt 0.406250 1.000000
vt 0.406250 0.500000
vt 0.375000 1.000000
vt 0.375000 0.500000
vt 0.343750 1.000000
vt 0.343750 0.500000
vt 0.312500 1.000000
vt 0.312500 0.500000
vt 0.281250 1.000000
vt 0.281250 0.500000
vt 0.250000 1.000000
vt 0.250000 0.500000
vt 0.218750 1.000000
vt 0.218750 0.500000
vt 0.187500 1.000000
vt 0.187500 0.500000
vt 0.156250 1.000000
vt 0.156250 0.500000
vt 0.125000 1.000000
vt 0.125000 0.500000
vt 0.093750 1.000000
vt 0.093750 0.500000
vt 0.062500 1.000000
vt 0.062500 0.500000
vt 0.296822 0.485388
vt 0.250000 0.490000
vt 0.203178 0.485388
vt 0.158156 0.471731
vt 0.116663 0.449553
vt 0.080294 0.419706
vt 0.050447 0.383337
vt 0.028269 0.341844
vt 0.014612 0.296822
vt 0.010000 0.250000
vt 0.014612 0.203178
vt 0.028269 0.158156
vt 0.050447 0.116663
vt 0.080294 0.080294
vt 0.116663 0.050447
vt 0.158156 0.028269
vt 0.203178 0.014612
vt 0.250000 0.010000
vt 0.296822 0.014612
vt 0.341844 0.028269
vt 0.383337 0.050447
vt 0.419706 0.080294
vt 0.449553 0.116663
vt 0.471731 0.158156
vt 0.485388 0.203178
vt 0.490000 0.250000
vt 0.485388 0.296822
vt 0.471731 0.341844
vt 0.449553 0.383337
vt 0.419706 0.419706
vt 0.383337 0.449553
vt 0.341844 0.471731
vt 0.031250 1.000000
vt 0.031250 0.500000
vt 0.000000 1.000000
vt 0.000000 0.500000
vt 0.750000 0.490000
vt 0.796822 0.485388
vt 0.841844 0.471731
vt 0.883337 0.449553
vt 0.919706 0.419706
vt 0.949553 0.383337
vt 0.971731 0.341844
vt 0.985388 0.296822
vt 0.990000 0.250000
vt 0.985388 0.203178
vt 0.971731 0.158156
vt 0.949553 0.116663
vt 0.919706 0.080294
vt 0.883337 0.050447
vt 0.841844 0.028269
vt 0.796822 0.014612
vt 0.750000 0.010000
vt 0.703178 0.014612
vt 0.658156 0.028269
vt 0.616663 0.050447
vt 0.580294 0.080294
vt 0.550447 0.116663
vt 0.528269 0.158156
vt 0.514612 0.203178
vt 0.510000 0.250000
vt 0.514612 0.296822
vt 0.528269 0.341844
vt 0.550447 0.383337
vt 0.580294 0.419706
vt 0.616663 0.449553
vt 0.658156 0.471731
vt 0.703178 0.485388
vt 0.375000 0.000000
vt 0.625000 0.000000
vt 0.625000 0.250000
vt 0.375000 0.250000
vt 0.375000 0.375000
vt 0.625000 0.375000
vt 0.625000 0.750000
vt 0.375000 0.750000
vt 0.375000 0.875000
vt 0.625000 0.875000
vt 0.250000 0.750000
vt 0.875000 0.750000
vt 0.750000 0.750000
vt 0.125000 0.750000
s 0
usemtl Material
f 1/1/1 2/2/1 4/3/1 3/4/1
f 3/4/2 4/3/2 6/5/2 5/6/2
f 5/6/3 6/5/3 8/7/3 7/8/3
f 7/8/4 8/7/4 10/9/4 9/10/4
f 9/10/5 10/9/5 12/11/5 11/12/5
f 11/12/6 12/11/6 14/13/6 13/14/6
f 13/14/7 14/13/7 16/15/7 15/16/7
f 15/16/8 16/15/8 18/17/8 17/18/8
f 17/18/9 18/17/9 20/19/9 19/20/9
f 19/20/10 20/19/10 22/21/10 21/22/10
f 21/22/11 22/21/11 24/23/11 23/24/11
f 23/24/12 24/23/12 26/25/12 25/26/12
f 25/26/13 26/25/13 28/27/13 27/28/13
f 27/28/14 28/27/14 30/29/14 29/30/14
f 29/30/15 30/29/15 32/31/15 31/32/15
f 31/32/16 32/31/16 34/33/16 33/34/16
f 33/34/17 34/33/17 36/35/17 35/36/17
f 35/36/18 36/35/18 38/37/18 37/38/18
f 37/38/19 38/37/19 40/39/19 39/40/19
f 39/40/20 40/39/20 42/41/20 41/42/20
f 41/42/21 42/41/21 44/43/21 43/44/21
f 43/44/22 44/43/22 46/45/22 45/46/22
f 45/46/23 46/45/23 48/47/23 47/48/23
f 47/48/24 48/47/24 50/49/24 49/50/24
f 49/50/25 50/49/25 52/51/25 51/52/25
f 51/52/26 52/51/26 54/53/26 53/54/26
f 53/54/27 54/53/27 56/55/27 55/56/27
f 55/56/28 56/55/28 58/57/28 57/58/28
f 57/58/29 58/57/29 60/59/29 59/60/29
f 59/60/30 60/59/30 62/61/30 61/62/30
f 4/63/31 2/64/31 64/65/31 62/66/31 60/67/31 58/68/31 56/69/31 54/70/31 52/71/31 50/72/31 48/73/31 46/74/31 44/75/31 42/76/31 40/77/31 38/78/31 36/79/31 34/80/31 32/81/31 30/82/31 28/83/31 26/84/31 24/85/31 22/86/31 20/87/31 18/88/31 16/89/31 14/90/31 12/91/31 10/92/31 8/93/31 6/94/31
f 61/62/32 62/61/32 64/95/32 63/96/32
f 63/96/33 64/95/33 2/97/33 1/98/33
f 1/99/34 3/100/34 5/101/34 7/102/34 9/103/34 11/104/34 13/105/34 15/106/34 17/107/34 19/108/34 21/109/34 23/110/34 25/111/34 27/112/34 29/113/34 31/114/34 33/115/34 35/116/34 37/117/34 39/118/34 41/119/34 43/120/34 45/121/34 47/122/34 49/123/34 51/124/34 53/125/34 55/126/34 57/127/34 59/128/34 61/129/34 63/130/34
f 65/131/35 66/132/35 68/133/35 67/134/35
f 73/135/36 74/136/36 72/26/36 71/42/36
f 71/42/37 72/26/37 70/137/37 69/138/37
f 75/139/38 76/140/38 66/25/38 65/41/38
f 73/50/39 71/42/39 69/138/39 75/141/39
f 74/18/40 68/10/40 66/142/40 76/143/40
f 72/26/40 74/18/40 76/143/40 70/137/40
f 67/58/41 73/50/41 75/141/41 65/144/41
f 69/138/42 70/137/42 76/140/42 75/139/42
f 67/134/43 68/133/43 74/136/43 73/135/43
f 77/1/1 78/2/1 80/3/1 79/4/1
f 79/4/2 80/3/2 82/5/2 81/6/2
f 81/6/3 82/5/3 84/7/3 83/8/3
f 83/8/4 84/7/4 86/9/4 85/10/4
f 85/10/5 86/9/5 88/11/5 87/12/5
f 87/12/6 88/11/6 90/13/6 89/14/6
f 89/14/7 90/13/7 92/15/7 91/16/7
f 91/16/8 92/15/8 94/17/8 93/18/8
f 93/18/9 94/17/9 96/19/9 95/20/9
f 95/20/10 96/19/10 98/21/10 97/22/10
f 97/22/11 98/21/11 100/23/11 99/24/11
f 99/24/12 100/23/12 102/25/12 101/26/12
f 101/26/13 102/25/13 104/27/13 103/28/13
f 103/28/14 104/27/14 106/29/14 105/30/14
f 105/30/15 106/29/15 108/31/15 107/32/15
f 107/32/16 108/31/16 110/33/16 109/34/16
f 109/34/17 110/33/17 112/35/17 111/36/17
f 111/36/18 112/35/18 114/37/18 113/38/18
f 113/38/19 114/37/19 116/39/19 115/40/19
f 115/40/20 116/39/20 118/41/20 117/42/20
f 117/42/21 118/41/21 120/43/21 119/44/21
f 119/44/22 120/43/22 122/45/22 121/46/22
f 121/46/23 122/45/23 124/47/23 123/48/23
f 123/48/24 124/47/24 126/49/24 125/50/24
f 125/50/25 126/49/25 128/51/25 127/52/25
f 127/52/26 128/51/26 130/53/26 129/54/26
f 129/54/27 130/53/27 132/55/27 131/56/27
f 131/56/28 132/55/28 134/57/28 133/58/28
f 133/58/29 134/57/29 136/59/29 135/60/29
f 135/60/30 136/59/30 138/61/30 137/62/30
f 80/63/31 78/64/31 140/65/31 138/66/31 136/67/31 134/68/31 132/69/31 130/70/31 128/71/31 126/72/31 124/73/31 122/74/31 120/75/31 118/76/31 116/77/31 114/78/31 112/79/31 110/80/31 108/81/31 106/82/31 104/83/31 102/84/31 100/85/31 98/86/31 96/87/31 94/88/31 92/89/31 90/90/31 88/91/31 86/92/31 84/93/31 82/94/31
f 137/62/32 138/61/32 140/95/32 139/96/32
f 139/96/33 140/95/33 78/97/33 77/98/33
f 77/99/34 79/100/34 81/101/34 83/102/34 85/103/34 87/104/34 89/105/34 91/106/34 93/107/34 95/108/34 97/109/34 99/110/34 101/111/34 103/112/34 105/113/34 107/114/34 109/115/34 111/116/34 113/117/34 115/118/34 117/119/34 119/120/34 121/121/34 123/122/34 125/123/34 127/124/34 129/125/34 131/126/34 133/127/34 135/128/34 137/129/34 139/130/34
